<?xml version="1.0" encoding="utf-8"?>
<svg xmlns="http://www.w3.org/2000/svg" version="1.1" width="1000" height="800">

<circle cx="300" cy="100" r="5" fill="blue" />
<text x="310" y="105" fill="black" >A</text>
<circle cx="200" cy="200" r="5" fill="blue" />
<text x="210" y="205" fill="black" >B</text>
<circle cx="400" cy="200" r="5" fill="blue" />
<text x="410" y="205" fill="black" >C</text>
<circle cx="300" cy="300" r="5" fill="blue" />
<text x="310" y="305" fill="black" >D</text>
<circle cx="200" cy="400" r="5" fill="blue" />
<text x="210" y="405" fill="black" >E</text>
<circle cx="300" cy="400" r="5" fill="blue" />
<text x="310" y="405" fill="black" >F</text>
<circle cx="400" cy="400" r="5" fill="blue" />
<text x="410" y="405" fill="black" >G</text>
<circle cx="100" cy="500" r="5" fill="blue" />
<text x="110" y="505" fill="black" >H</text>
<circle cx="500" cy="500" r="5" fill="blue" />
<text x="510" y="505" fill="black" >I</text>
<line x1="300" y1="100" x2="200" y2="200" stroke="black" />
<line x1="300" y1="100" x2="400" y2="200" stroke="black" />
<line x1="200" y1="200" x2="300" y2="300" stroke="black" />
<line x1="400" y1="200" x2="300" y2="300" stroke="black" />
<line x1="300" y1="300" x2="200" y2="400" stroke="black" />
<line x1="300" y1="300" x2="400" y2="400" stroke="black" />
<line x1="200" y1="200" x2="100" y2="500" stroke="black" />
<line x1="400" y1="200" x2="500" y2="500" stroke="black" />
<line x1="200" y1="400" x2="300" y2="400" stroke="black" />
<line x1="300" y1="400" x2="400" y2="400" stroke="black" />
<line x1="400" y1="400" x2="500" y2="500" stroke="black" />
<line x1="200" y1="400" x2="100" y2="500" stroke="black" />
<line x1="100" y1="500" x2="500" y2="500" stroke="black" />


</svg>
