<?xml version="1.0" encoding="utf-8"?>
<svg xmlns="http://www.w3.org/2000/svg" version="1.1" width="1000" height="800">

<text x="720" y="506" fill="black" >0 voisin</text>
<text x="720" y="530" fill="black" >1 voisin</text>
<text x="720" y="554" fill="black" >2 voisins</text>
<text x="720" y="578" fill="black" >3 voisins</text>
<text x="720" y="602" fill="black" >4 voisins</text>
<text x="720" y="626" fill="black" >5 voisins</text>
<line x1="0" y1="0" x2="1000" y2="0" stroke="lightgrey" />
<text x="5" y="-5" fill="lightgrey" >0</text>
<line x1="0" y1="100" x2="1000" y2="100" stroke="lightgrey" />
<text x="5" y="95" fill="lightgrey" >100</text>
<line x1="0" y1="200" x2="1000" y2="200" stroke="lightgrey" />
<text x="5" y="195" fill="lightgrey" >200</text>
<line x1="0" y1="300" x2="1000" y2="300" stroke="lightgrey" />
<text x="5" y="295" fill="lightgrey" >300</text>
<line x1="0" y1="400" x2="1000" y2="400" stroke="lightgrey" />
<text x="5" y="395" fill="lightgrey" >400</text>
<line x1="0" y1="500" x2="1000" y2="500" stroke="lightgrey" />
<text x="5" y="495" fill="lightgrey" >500</text>
<line x1="0" y1="600" x2="1000" y2="600" stroke="lightgrey" />
<text x="5" y="595" fill="lightgrey" >600</text>
<line x1="0" y1="700" x2="1000" y2="700" stroke="lightgrey" />
<text x="5" y="695" fill="lightgrey" >700</text>
<line x1="0" y1="800" x2="1000" y2="800" stroke="lightgrey" />
<text x="5" y="795" fill="lightgrey" >800</text>
<line x1="0" y1="0" x2="0" y2="800" stroke="lightgrey" />
<text x="5" y="15" fill="lightgrey" >0</text>
<line x1="100" y1="0" x2="100" y2="800" stroke="lightgrey" />
<text x="105" y="15" fill="lightgrey" >100</text>
<line x1="200" y1="0" x2="200" y2="800" stroke="lightgrey" />
<text x="205" y="15" fill="lightgrey" >200</text>
<line x1="300" y1="0" x2="300" y2="800" stroke="lightgrey" />
<text x="305" y="15" fill="lightgrey" >300</text>
<line x1="400" y1="0" x2="400" y2="800" stroke="lightgrey" />
<text x="405" y="15" fill="lightgrey" >400</text>
<line x1="500" y1="0" x2="500" y2="800" stroke="lightgrey" />
<text x="505" y="15" fill="lightgrey" >500</text>
<line x1="600" y1="0" x2="600" y2="800" stroke="lightgrey" />
<text x="605" y="15" fill="lightgrey" >600</text>
<line x1="700" y1="0" x2="700" y2="800" stroke="lightgrey" />
<text x="705" y="15" fill="lightgrey" >700</text>
<line x1="800" y1="0" x2="800" y2="800" stroke="lightgrey" />
<text x="805" y="15" fill="lightgrey" >800</text>
<line x1="900" y1="0" x2="900" y2="800" stroke="lightgrey" />
<text x="905" y="15" fill="lightgrey" >900</text>
<line x1="1000" y1="0" x2="1000" y2="800" stroke="lightgrey" />
<text x="1005" y="15" fill="lightgrey" >1000</text>
<circle cx="400" cy="400" r="5" fill="purple" />
<text x="405" y="395" fill="black" >A</text>
<circle cx="500" cy="200" r="5" fill="orange" />
<text x="505" y="195" fill="black" >B</text>
<circle cx="600" cy="300" r="5" fill="orange" />
<text x="605" y="295" fill="black" >C</text>
<circle cx="600" cy="400" r="5" fill="orange" />
<text x="605" y="395" fill="black" >D</text>
<circle cx="600" cy="500" r="5" fill="orange" />
<text x="605" y="495" fill="black" >E</text>
<circle cx="500" cy="600" r="5" fill="yellow" />
<text x="505" y="595" fill="black" >F</text>
<circle cx="400" cy="600" r="5" fill="orange" />
<text x="405" y="595" fill="black" >G</text>
<circle cx="300" cy="600" r="5" fill="orange" />
<text x="305" y="595" fill="black" >H</text>
<circle cx="200" cy="500" r="5" fill="orange" />
<text x="205" y="495" fill="black" >I</text>
<circle cx="200" cy="400" r="5" fill="orange" />
<text x="205" y="395" fill="black" >J</text>
<circle cx="200" cy="300" r="5" fill="orange" />
<text x="205" y="295" fill="black" >K</text>
<circle cx="300" cy="200" r="5" fill="orange" />
<text x="305" y="195" fill="black" >L</text>
<circle cx="400" cy="200" r="5" fill="orange" />
<text x="405" y="195" fill="black" >M</text>
<circle cx="600" cy="100" r="5" fill="yellow" />
<text x="605" y="95" fill="black" >N</text>
<circle cx="700" cy="100" r="5" fill="green" />
<text x="705" y="95" fill="black" >O</text>
<circle cx="700" cy="400" r="5" fill="green" />
<text x="705" y="395" fill="black" >P</text>
<circle cx="400" cy="700" r="5" fill="green" />
<text x="405" y="695" fill="black" >Q</text>
<circle cx="300" cy="700" r="5" fill="green" />
<text x="305" y="695" fill="black" >R</text>
<circle cx="100" cy="600" r="5" fill="blue" />
<text x="105" y="595" fill="black" >S</text>
<circle cx="100" cy="400" r="5" fill="blue" />
<text x="105" y="395" fill="black" >T</text>
<circle cx="100" cy="300" r="5" fill="blue" />
<text x="105" y="295" fill="black" >U</text>
<circle cx="200" cy="200" r="5" fill="yellow" />
<text x="205" y="195" fill="black" >V</text>
<circle cx="100" cy="100" r="5" fill="blue" />
<text x="105" y="95" fill="black" >W</text>
<circle cx="400" cy="100" r="5" fill="yellow" />
<text x="405" y="95" fill="black" >X</text>
<line x1="400" y1="400" x2="500" y2="200" stroke="black" />
<text x="468" y="300" fill="green" >0</text>
<line x1="400" y1="400" x2="600" y2="300" stroke="black" />
<text x="518" y="350" fill="green" >1</text>
<line x1="400" y1="400" x2="600" y2="400" stroke="black" />
<text x="518" y="400" fill="green" >2</text>
<line x1="400" y1="400" x2="600" y2="500" stroke="black" />
<text x="518" y="450" fill="green" >3</text>
<line x1="400" y1="400" x2="500" y2="600" stroke="black" />
<text x="468" y="500" fill="green" >4</text>
<line x1="400" y1="400" x2="400" y2="600" stroke="black" />
<text x="418" y="500" fill="green" >5</text>
<line x1="400" y1="400" x2="300" y2="600" stroke="black" />
<text x="368" y="500" fill="green" >6</text>
<line x1="400" y1="400" x2="200" y2="500" stroke="black" />
<text x="318" y="450" fill="green" >7</text>
<line x1="400" y1="400" x2="200" y2="400" stroke="black" />
<text x="318" y="400" fill="green" >8</text>
<line x1="400" y1="400" x2="200" y2="300" stroke="black" />
<text x="318" y="350" fill="green" >9</text>
<line x1="400" y1="400" x2="300" y2="200" stroke="black" />
<text x="368" y="300" fill="green" >10</text>
<line x1="400" y1="400" x2="400" y2="200" stroke="black" />
<text x="418" y="300" fill="green" >11</text>
<line x1="500" y1="200" x2="600" y2="300" stroke="black" />
<text x="568" y="250" fill="green" >12</text>
<line x1="600" y1="300" x2="600" y2="400" stroke="black" />
<text x="618" y="350" fill="green" >13</text>
<line x1="600" y1="400" x2="600" y2="500" stroke="black" />
<text x="618" y="450" fill="green" >14</text>
<line x1="600" y1="500" x2="500" y2="600" stroke="black" />
<text x="568" y="550" fill="green" >15</text>
<line x1="500" y1="200" x2="600" y2="100" stroke="black" />
<text x="568" y="150" fill="green" >16</text>
<line x1="600" y1="300" x2="700" y2="100" stroke="black" />
<text x="668" y="200" fill="green" >17</text>
<line x1="600" y1="400" x2="700" y2="400" stroke="black" />
<text x="668" y="400" fill="green" >18</text>
<line x1="400" y1="600" x2="400" y2="700" stroke="black" />
<text x="418" y="650" fill="green" >19</text>
<line x1="300" y1="600" x2="300" y2="700" stroke="black" />
<text x="318" y="650" fill="green" >20</text>
<line x1="200" y1="500" x2="100" y2="600" stroke="black" />
<text x="168" y="550" fill="green" >21</text>
<line x1="200" y1="400" x2="100" y2="400" stroke="black" />
<text x="168" y="400" fill="green" >22</text>
<line x1="200" y1="300" x2="100" y2="300" stroke="black" />
<text x="168" y="300" fill="green" >23</text>
<line x1="300" y1="200" x2="200" y2="200" stroke="black" />
<text x="268" y="200" fill="green" >24</text>
<line x1="400" y1="200" x2="400" y2="100" stroke="black" />
<text x="418" y="150" fill="green" >25</text>
<line x1="600" y1="100" x2="700" y2="100" stroke="black" />
<text x="668" y="100" fill="green" >26</text>
<line x1="600" y1="100" x2="400" y2="100" stroke="black" />
<text x="518" y="100" fill="green" >27</text>
<line x1="400" y1="100" x2="200" y2="200" stroke="black" />
<text x="318" y="150" fill="green" >28</text>
<line x1="200" y1="200" x2="100" y2="100" stroke="black" />
<text x="168" y="150" fill="green" >29</text>
<line x1="600" y1="500" x2="700" y2="400" stroke="black" />
<text x="668" y="450" fill="green" >30</text>
<line x1="400" y1="700" x2="300" y2="700" stroke="black" />
<text x="368" y="700" fill="green" >31</text>
<line x1="500" y1="600" x2="400" y2="600" stroke="black" />
<text x="468" y="600" fill="green" >32</text>
<line x1="400" y1="600" x2="300" y2="600" stroke="black" />
<text x="368" y="600" fill="green" >33</text>
<line x1="300" y1="600" x2="200" y2="500" stroke="black" />
<text x="268" y="550" fill="green" >34</text>
<line x1="200" y1="500" x2="200" y2="400" stroke="black" />
<text x="218" y="450" fill="green" >35</text>
<line x1="200" y1="400" x2="200" y2="300" stroke="black" />
<text x="218" y="350" fill="green" >36</text>
<line x1="200" y1="300" x2="300" y2="200" stroke="black" />
<text x="268" y="250" fill="green" >37</text>
<line x1="300" y1="200" x2="400" y2="200" stroke="black" />
<text x="368" y="200" fill="green" >38</text>
<line x1="400" y1="200" x2="500" y2="200" stroke="black" />
<text x="468" y="200" fill="green" >39</text>
<circle cx="700" cy="500" r="7" fill="cyan" />
<circle cx="700" cy="524" r="7" fill="blue" />
<circle cx="700" cy="548" r="7" fill="green" />
<circle cx="700" cy="572" r="7" fill="yellow" />
<circle cx="700" cy="596" r="7" fill="orange" />
<circle cx="700" cy="620" r="7" fill="red" />
<rect x="693" y="637" width="15" height="15" stroke="black" fill="green" stroke-width="1" /><text x="720" y="651" fill="black" >ID de l'arete</text>


</svg>
