<?xml version="1.0" encoding="utf-8"?>
<svg xmlns="http://www.w3.org/2000/svg" version="1.1" width="1000" height="800">

<circle cx="200" cy="100" r="5" fill="blue" />
<text x="210" y="105" fill="black" >A</text>
<circle cx="600" cy="100" r="5" fill="blue" />
<text x="610" y="105" fill="black" >B</text>
<circle cx="100" cy="200" r="5" fill="blue" />
<text x="110" y="205" fill="black" >C</text>
<circle cx="300" cy="200" r="5" fill="blue" />
<text x="310" y="205" fill="black" >D</text>
<circle cx="400" cy="200" r="5" fill="blue" />
<text x="410" y="205" fill="black" >E</text>
<circle cx="500" cy="200" r="5" fill="blue" />
<text x="510" y="205" fill="black" >F</text>
<circle cx="700" cy="200" r="5" fill="blue" />
<text x="710" y="205" fill="black" >G</text>
<circle cx="200" cy="300" r="5" fill="blue" />
<text x="210" y="305" fill="black" >H</text>
<circle cx="600" cy="300" r="5" fill="blue" />
<text x="610" y="305" fill="black" >I</text>
<line x1="200" y1="100" x2="300" y2="200" stroke="black" />
<text x="260" y="160" fill="green" >0</text>
<line x1="600" y1="100" x2="500" y2="200" stroke="black" />
<text x="560" y="160" fill="green" >1</text>
<line x1="100" y1="200" x2="300" y2="200" stroke="black" />
<text x="210" y="210" fill="green" >2</text>
<line x1="300" y1="200" x2="400" y2="200" stroke="black" />
<text x="360" y="210" fill="green" >3</text>
<line x1="400" y1="200" x2="500" y2="200" stroke="black" />
<text x="460" y="210" fill="green" >4</text>
<line x1="500" y1="200" x2="700" y2="200" stroke="black" />
<text x="610" y="210" fill="green" >5</text>
<line x1="200" y1="300" x2="300" y2="200" stroke="black" />
<text x="260" y="260" fill="green" >6</text>
<line x1="600" y1="300" x2="500" y2="200" stroke="black" />
<text x="560" y="260" fill="green" >7</text>


</svg>
