<?xml version="1.0" encoding="utf-8"?>
<svg xmlns="http://www.w3.org/2000/svg" version="1.1" width="1000" height="800">

<text x="625" y="336" fill="black" >0 voisin</text>
<text x="625" y="360" fill="black" >1 voisin</text>
<text x="625" y="384" fill="black" >2 voisins</text>
<text x="625" y="408" fill="black" >3 voisins</text>
<text x="625" y="432" fill="black" >4 voisins</text>
<text x="625" y="456" fill="black" >5 voisins</text>
<circle cx="300" cy="100" r="5" fill="cyan" />
<text x="305" y="95" fill="black" >A</text>
<circle cx="200" cy="200" r="5" fill="cyan" />
<text x="205" y="195" fill="black" >B</text>
<circle cx="400" cy="200" r="5" fill="green" />
<text x="405" y="195" fill="black" >C</text>
<circle cx="300" cy="300" r="5" fill="yellow" />
<text x="305" y="295" fill="black" >D</text>
<circle cx="200" cy="400" r="5" fill="yellow" />
<text x="205" y="395" fill="black" >E</text>
<circle cx="300" cy="400" r="5" fill="green" />
<text x="305" y="395" fill="black" >F</text>
<circle cx="400" cy="400" r="5" fill="yellow" />
<text x="405" y="395" fill="black" >G</text>
<circle cx="100" cy="500" r="5" fill="green" />
<text x="105" y="495" fill="black" >H</text>
<circle cx="500" cy="500" r="5" fill="yellow" />
<text x="505" y="495" fill="black" >I</text>
<line x1="400" y1="200" x2="300" y2="300" stroke="black" />
<text x="368" y="250" fill="green" >0</text>
<line x1="300" y1="300" x2="200" y2="400" stroke="black" />
<text x="268" y="350" fill="green" >1</text>
<line x1="300" y1="300" x2="400" y2="400" stroke="black" />
<text x="368" y="350" fill="green" >2</text>
<line x1="400" y1="200" x2="500" y2="500" stroke="black" />
<text x="468" y="350" fill="green" >3</text>
<line x1="200" y1="400" x2="300" y2="400" stroke="black" />
<text x="268" y="400" fill="green" >4</text>
<line x1="300" y1="400" x2="400" y2="400" stroke="black" />
<text x="368" y="400" fill="green" >5</text>
<line x1="400" y1="400" x2="500" y2="500" stroke="black" />
<text x="468" y="450" fill="green" >6</text>
<line x1="200" y1="400" x2="100" y2="500" stroke="black" />
<text x="168" y="450" fill="green" >7</text>
<line x1="100" y1="500" x2="500" y2="500" stroke="black" />
<text x="318" y="500" fill="green" >8</text>
<circle cx="607" cy="330" r="7" fill="cyan" />
<circle cx="607" cy="354" r="7" fill="blue" />
<circle cx="607" cy="378" r="7" fill="green" />
<circle cx="607" cy="402" r="7" fill="yellow" />
<circle cx="607" cy="426" r="7" fill="orange" />
<circle cx="607" cy="450" r="7" fill="red" />
<rect x="600" y="467" width="15" height="15" stroke="black" fill="green" stroke-width="1" /><text x="625" y="480" fill="black" >ID de l'arete</text>
<text x="320" y="250" fill="red" >6</text>
<text x="220" y="350" fill="red" >7</text>
<text x="320" y="350" fill="red" >3</text>
<text x="420" y="350" fill="red" >7</text>
<text x="220" y="400" fill="red" >8</text>
<text x="320" y="400" fill="red" >2</text>
<text x="420" y="450" fill="red" >20</text>
<text x="120" y="450" fill="red" >6</text>
<text x="270" y="500" fill="red" >14</text>
<rect x="600" y="492" width="15" height="15" stroke="black" fill="red" stroke-width="1" /><text x="625" y="505" fill="black" >Poids de l'arete</text>
<text x="270" y="110" fill="purple" >0</text>
<text x="270" y="127" fill="purple" >0</text>
<text x="270" y="144" fill="purple" >0</text>
<text x="270" y="161" fill="purple" >0</text>
<text x="170" y="210" fill="purple" >0</text>
<text x="170" y="227" fill="purple" >0</text>
<text x="170" y="244" fill="purple" >0</text>
<text x="170" y="261" fill="purple" >0</text>
<text x="370" y="210" fill="purple" >0.25</text>
<text x="370" y="227" fill="purple" >0.310885</text>
<text x="370" y="244" fill="purple" >0.123077</text>
<text x="370" y="261" fill="purple" >0.339286</text>
<text x="270" y="310" fill="purple" >0.375</text>
<text x="270" y="327" fill="purple" >0.435239</text>
<text x="270" y="344" fill="purple" >0.170213</text>
<text x="270" y="361" fill="purple" >0.482143</text>
<text x="170" y="410" fill="purple" >0.375</text>
<text x="170" y="427" fill="purple" >0.414513</text>
<text x="170" y="444" fill="purple" >0.125</text>
<text x="170" y="461" fill="purple" >0.357143</text>
<text x="270" y="410" fill="purple" >0.25</text>
<text x="270" y="427" fill="purple" >0.310885</text>
<text x="270" y="444" fill="purple" >0.137931</text>
<text x="270" y="461" fill="purple" >0.25</text>
<text x="370" y="410" fill="purple" >0.375</text>
<text x="370" y="427" fill="purple" >0.435239</text>
<text x="370" y="444" fill="purple" >0.142857</text>
<text x="370" y="461" fill="purple" >0.321429</text>
<text x="70" y="510" fill="purple" >0.25</text>
<text x="70" y="527" fill="purple" >0.290159</text>
<text x="70" y="544" fill="purple" >0.097561</text>
<text x="70" y="561" fill="purple" >0.232143</text>
<text x="470" y="510" fill="purple" >0.375</text>
<text x="470" y="527" fill="purple" >0.414513</text>
<text x="470" y="544" fill="purple" >0.0909091</text>
<text x="470" y="561" fill="purple" >0.214286</text>


</svg>
