<?xml version="1.0" encoding="utf-8"?>
<svg xmlns="http://www.w3.org/2000/svg" version="1.1" width="1000" height="800">

<text x="625" y="336" fill="black" >0 voisin</text>
<text x="625" y="360" fill="black" >1 voisin</text>
<text x="625" y="384" fill="black" >2 voisins</text>
<text x="625" y="408" fill="black" >3 voisins</text>
<text x="625" y="432" fill="black" >4 voisins</text>
<text x="625" y="456" fill="black" >5 voisins</text>
<polygon points=" 600,600 600,650 640,625" style="fill:black;stroke:purple;stroke-width:40" />
<circle cx="300" cy="100" r="5" fill="green" />
<text x="305" y="95" fill="black" >A</text>
<circle cx="200" cy="200" r="5" fill="green" />
<text x="205" y="195" fill="black" >B</text>
<circle cx="400" cy="200" r="5" fill="green" />
<text x="405" y="195" fill="black" >C</text>
<circle cx="300" cy="300" r="5" fill="green" />
<text x="305" y="295" fill="black" >D</text>
<circle cx="200" cy="400" r="5" fill="green" />
<text x="205" y="395" fill="black" >E</text>
<circle cx="300" cy="400" r="5" fill="blue" />
<text x="305" y="395" fill="black" >F</text>
<circle cx="400" cy="400" r="5" fill="blue" />
<text x="405" y="395" fill="black" >G</text>
<circle cx="100" cy="500" r="5" fill="blue" />
<text x="105" y="495" fill="black" >H</text>
<circle cx="500" cy="500" r="5" fill="cyan" />
<text x="505" y="495" fill="black" >I</text>
<line x1="300" y1="100" x2="200" y2="200" stroke="black" />
<text x="268" y="150" fill="green" >0</text>
<polygon points=" 200,200 209,200 200,191" style="fill:black" />
<line x1="300" y1="100" x2="400" y2="200" stroke="black" />
<text x="368" y="150" fill="green" >1</text>
<polygon points=" 400,200 391,200 400,191" style="fill:black" />
<line x1="200" y1="200" x2="300" y2="300" stroke="black" />
<text x="268" y="250" fill="green" >2</text>
<polygon points=" 300,300 291,300 300,291" style="fill:black" />
<line x1="400" y1="200" x2="300" y2="300" stroke="black" />
<text x="368" y="250" fill="green" >3</text>
<polygon points=" 300,300 309,300 300,291" style="fill:black" />
<line x1="300" y1="300" x2="200" y2="400" stroke="black" />
<text x="268" y="350" fill="green" >4</text>
<polygon points=" 200,400 209,400 200,391" style="fill:black" />
<line x1="300" y1="300" x2="400" y2="400" stroke="black" />
<text x="368" y="350" fill="green" >5</text>
<polygon points=" 400,400 391,400 400,391" style="fill:black" />
<line x1="200" y1="200" x2="100" y2="500" stroke="black" />
<text x="168" y="350" fill="green" >6</text>
<polygon points=" 100,500 109,500 100,491" style="fill:black" />
<line x1="400" y1="200" x2="500" y2="500" stroke="black" />
<text x="468" y="350" fill="green" >7</text>
<polygon points=" 500,500 491,500 500,491" style="fill:black" />
<line x1="200" y1="400" x2="300" y2="400" stroke="black" />
<text x="268" y="400" fill="green" >8</text>
<polygon points=" 300,400 293,405 293,395" style="fill:black" />
<line x1="300" y1="400" x2="400" y2="400" stroke="black" />
<text x="368" y="400" fill="green" >9</text>
<polygon points=" 400,400 393,405 393,395" style="fill:black" />
<line x1="400" y1="400" x2="500" y2="500" stroke="black" />
<text x="468" y="450" fill="green" >10</text>
<polygon points=" 500,500 491,500 500,491" style="fill:black" />
<line x1="200" y1="400" x2="100" y2="500" stroke="black" />
<text x="168" y="450" fill="green" >11</text>
<polygon points=" 100,500 109,500 100,491" style="fill:black" />
<line x1="100" y1="500" x2="500" y2="500" stroke="black" />
<text x="318" y="500" fill="green" >12</text>
<polygon points=" 500,500 493,505 493,495" style="fill:black" />
<circle cx="607" cy="330" r="7" fill="cyan" />
<circle cx="607" cy="354" r="7" fill="blue" />
<circle cx="607" cy="378" r="7" fill="green" />
<circle cx="607" cy="402" r="7" fill="yellow" />
<circle cx="607" cy="426" r="7" fill="orange" />
<circle cx="607" cy="450" r="7" fill="red" />
<rect x="600" y="467" width="15" height="15" stroke="black" fill="green" stroke-width="1" /><text x="625" y="480" fill="black" >ID de l'arete</text>


</svg>
